# xmcd
#
# Track frame offsets: 
#        150
#        18252
#        37302
#        57905
#        75526
#        101130
#        120339
#        143200
#        164203
#        187276
#
# Disc length: 2795 seconds
#
# Revision: 0
# Processed by: cddbd v1.5.2PL0 Copyright (c) Steve Scherf et al.
# Submitted via: ExactAudioCopy v1.0b3
#
DISCID=8f0ae90a
DTITLE=Tuan Vu - Thuo Ay Co Em
DYEAR=1994
DGENRE=
TTITLE0=Thuo ay co em
TTITLE1=Ke co don
TTITLE2=Xin con goi ten nhau
TTITLE3=Net buon thoi chien
TTITLE4=Tron thuong
TTITLE5=Doi toi chi yeu mot nguoi
TTITLE6=Mot lan cuoi
TTITLE7=Vong nhan cuoi
TTITLE8=Tinh chet theo mua dong
TTITLE9=Hanh phuc lang thang
EXTD=
EXTT0=
EXTT1=
EXTT2=
EXTT3=
EXTT4=
EXTT5=
EXTT6=
EXTT7=
EXTT8=
EXTT9=
PLAYORDER=
